<svg width="1440" height="172" viewBox="0 0 1440 172" fill="none" xmlns="http://www.w3.org/2000/svg">
<path d="M196.5 7H-8V172H1439V7H423L364 83H236L196.5 7Z" fill="#08072C"/>
<path d="M195 3.29004L-151 3.28996" stroke="#ACF0FF" stroke-width="6" stroke-linecap="round"/>
<line x1="367.5" y1="82.79" x2="239.5" y2="82.7901" stroke="#ACF0FF" stroke-width="9" stroke-linecap="round"/>
<path d="M195.5 3.79004L238.034 83.505" stroke="#ACF0FF" stroke-width="6" stroke-linecap="round"/>
<line x1="420.326" y1="7.26086" x2="368.557" y2="82.1007" stroke="#ACF0FF" stroke-width="9" stroke-linecap="round"/>
<line x1="421.5" y1="5.79004" x2="1460.5" y2="5.79022" stroke="#ACF0FF" stroke-width="9" stroke-linecap="round"/>
<path d="M181 34.3481L-167 34.3481" stroke="#ACF0FF" stroke-width="3" stroke-linecap="round"/>
<path d="M181.5 34.9419L217.251 101.754" stroke="#ACF0FF" stroke-width="3" stroke-linecap="round"/>
<path d="M379 116L257 116" stroke="#ACF0FF" stroke-width="3" stroke-linecap="round"/>
<line x1="434.132" y1="35.0823" x2="379.356" y2="116.291" stroke="#ACF0FF" stroke-width="3" stroke-linecap="round"/>
<path d="M434.5 34.3481H1460" stroke="#ACF0FF" stroke-width="3" stroke-linecap="round"/>
<g filter="url(#filter0_d_11_160)">
<line x1="-7" y1="130.5" x2="1433" y2="130.5" stroke="#694ABF"/>
</g>
<defs>
<filter id="filter0_d_11_160" x="-13" y="128" width="1452" height="13" filterUnits="userSpaceOnUse" color-interpolation-filters="sRGB">
<feFlood flood-opacity="0" result="BackgroundImageFix"/>
<feColorMatrix in="SourceAlpha" type="matrix" values="0 0 0 0 0 0 0 0 0 0 0 0 0 0 0 0 0 0 127 0" result="hardAlpha"/>
<feOffset dy="4"/>
<feGaussianBlur stdDeviation="3"/>
<feComposite in2="hardAlpha" operator="out"/>
<feColorMatrix type="matrix" values="0 0 0 0 0.410518 0 0 0 0 0.290948 0 0 0 0 0.750833 0 0 0 1 0"/>
<feBlend mode="normal" in2="BackgroundImageFix" result="effect1_dropShadow_11_160"/>
<feBlend mode="normal" in="SourceGraphic" in2="effect1_dropShadow_11_160" result="shape"/>
</filter>
</defs>
</svg>
