<svg width="1440" height="194" viewBox="0 0 1440 194" fill="none" xmlns="http://www.w3.org/2000/svg">
<rect y="-3" width="1444" height="114" fill="#08072C"/>
<path d="M202 88H367.968H446L389.138 191H251.387L202 88Z" fill="#08072C"/>
<circle cx="320" cy="115" r="17.5" stroke="#ACF0FF" stroke-width="3"/>
<g filter="url(#filter0_d_1_40)">
<line x1="4" y1="38.5" x2="1444" y2="38.5" stroke="#694ABF"/>
</g>
<path d="M212 110L-134 110" stroke="#ACF0FF" stroke-width="6" stroke-linecap="round"/>
<line x1="384.5" y1="189.5" x2="256.5" y2="189.5" stroke="#ACF0FF" stroke-width="9" stroke-linecap="round"/>
<path d="M212.5 110.5L255.034 190.215" stroke="#ACF0FF" stroke-width="6" stroke-linecap="round"/>
<line x1="437.326" y1="113.971" x2="385.557" y2="188.81" stroke="#ACF0FF" stroke-width="9" stroke-linecap="round"/>
<line x1="438.5" y1="112.5" x2="1477.5" y2="112.5" stroke="#ACF0FF" stroke-width="9" stroke-linecap="round"/>
<path d="M223.5 82.5L-124.5 82.5" stroke="#ACF0FF" stroke-width="3" stroke-linecap="round"/>
<path d="M224 83.0938L259.751 149.906" stroke="#ACF0FF" stroke-width="3" stroke-linecap="round"/>
<path d="M292 164.5H371.5" stroke="#ACF0FF" stroke-width="3" stroke-linecap="round"/>
<line x1="426.632" y1="83.2344" x2="371.856" y2="164.443" stroke="#ACF0FF" stroke-width="3" stroke-linecap="round"/>
<path d="M427 82.5H1452.5" stroke="#ACF0FF" stroke-width="3" stroke-linecap="round"/>
<defs>
<filter id="filter0_d_1_40" x="-2" y="36" width="1452" height="13" filterUnits="userSpaceOnUse" color-interpolation-filters="sRGB">
<feFlood flood-opacity="0" result="BackgroundImageFix"/>
<feColorMatrix in="SourceAlpha" type="matrix" values="0 0 0 0 0 0 0 0 0 0 0 0 0 0 0 0 0 0 127 0" result="hardAlpha"/>
<feOffset dy="4"/>
<feGaussianBlur stdDeviation="3"/>
<feComposite in2="hardAlpha" operator="out"/>
<feColorMatrix type="matrix" values="0 0 0 0 0.410518 0 0 0 0 0.290948 0 0 0 0 0.750833 0 0 0 1 0"/>
<feBlend mode="normal" in2="BackgroundImageFix" result="effect1_dropShadow_1_40"/>
<feBlend mode="normal" in="SourceGraphic" in2="effect1_dropShadow_1_40" result="shape"/>
</filter>
</defs>
</svg>
